<svg xmlns="http://www.w3.org/2000/svg" viewBox="0 0 1200 630" role="img" aria-label="PLML Laboratory social sharing image">
  <defs>
    <linearGradient id="bg" x1="0%" y1="0%" x2="100%" y2="100%">
      <stop offset="0%" stop-color="#07111f"/>
      <stop offset="55%" stop-color="#0d1f3f"/>
      <stop offset="100%" stop-color="#13305c"/>
    </linearGradient>
    <linearGradient id="accent" x1="0%" y1="0%" x2="100%" y2="0%">
      <stop offset="0%" stop-color="#99f6e4"/>
      <stop offset="100%" stop-color="#67e8f9"/>
    </linearGradient>
    <pattern id="grid" width="48" height="48" patternUnits="userSpaceOnUse">
      <path d="M48 0H0V48" fill="none" stroke="#dbeafe" stroke-opacity="0.08" stroke-width="1"/>
    </pattern>
    <radialGradient id="glowA" cx="0%" cy="0%" r="100%">
      <stop offset="0%" stop-color="#93c5fd" stop-opacity="0.26"/>
      <stop offset="100%" stop-color="#93c5fd" stop-opacity="0"/>
    </radialGradient>
    <radialGradient id="glowB" cx="50%" cy="50%" r="100%">
      <stop offset="0%" stop-color="#5eead4" stop-opacity="0.2"/>
      <stop offset="100%" stop-color="#5eead4" stop-opacity="0"/>
    </radialGradient>
  </defs>

  <rect width="1200" height="630" fill="url(#bg)"/>
  <rect width="1200" height="630" fill="url(#grid)"/>

  <circle cx="180" cy="92" r="220" fill="url(#glowA)"/>
  <circle cx="1020" cy="148" r="250" fill="url(#glowB)"/>
  <circle cx="960" cy="560" r="200" fill="url(#glowA)" opacity="0.5"/>

  <g fill="none" stroke-linecap="round">
    <path d="M-30 468c104-34 188-40 268-22 72 18 116 46 184 46 64 0 116-24 186-40 64-16 136-14 216 16 66 24 126 26 200-2" stroke="#dbeafe" stroke-opacity="0.18" stroke-width="4"/>
    <path d="M-20 534c112-22 194-8 274 28 62 30 110 54 180 54 68 0 120-22 190-48 68-26 132-34 220-14 62 14 114 14 180-4" stroke="#93c5fd" stroke-opacity="0.24" stroke-width="3"/>
  </g>

  <text x="92" y="238" font-family="'Sora', 'Aptos', sans-serif" font-size="96" font-weight="700" letter-spacing="4" fill="#f8fafc">PL</text>
  <text x="224" y="238" font-family="'Sora', 'Aptos', sans-serif" font-size="96" font-weight="700" letter-spacing="4" fill="url(#accent)">ML</text>
  <text x="92" y="326" font-family="'Sora', 'Aptos', sans-serif" font-size="72" font-weight="600" letter-spacing="1" fill="#f8fafc">Laboratory</text>
  <text x="96" y="394" font-family="'Aptos', 'Noto Sans KR', sans-serif" font-size="28" font-weight="500" letter-spacing="0.8" fill="#dbeafe" opacity="0.92">Programming Languages and Machine Learning</text>
  <text x="96" y="454" font-family="'Aptos', 'Noto Sans KR', sans-serif" font-size="24" font-weight="400" fill="#bfdbfe" opacity="0.9">Kangwon National University</text>
</svg>
