<svg xmlns="http://www.w3.org/2000/svg" viewBox="0 0 320 420" role="img" aria-label="Computing Exact Skyline Probabilities for Uncertain Databases">
  <defs>
    <linearGradient id="bg" x1="0%" y1="0%" x2="100%" y2="100%">
      <stop offset="0%" stop-color="#050816"/>
      <stop offset="52%" stop-color="#0b1634"/>
      <stop offset="100%" stop-color="#13244d"/>
    </linearGradient>
    <linearGradient id="accent" x1="0%" y1="0%" x2="100%" y2="100%">
      <stop offset="0%" stop-color="#3f5f9d"/>
      <stop offset="100%" stop-color="#5d82c8"/>
    </linearGradient>
    <pattern id="grid" width="24" height="24" patternUnits="userSpaceOnUse">
      <path d="M24 0H0V24" fill="none" stroke="#dbeafe" stroke-opacity="0.08" stroke-width="1"/>
    </pattern>
    <radialGradient id="glowA" cx="0%" cy="0%" r="100%">
      <stop offset="0%" stop-color="#93c5fd" stop-opacity="0.18"/>
      <stop offset="100%" stop-color="#93c5fd" stop-opacity="0"/>
    </radialGradient>
    <radialGradient id="glowB" cx="50%" cy="50%" r="100%">
      <stop offset="0%" stop-color="#60a5fa" stop-opacity="0.14"/>
      <stop offset="100%" stop-color="#60a5fa" stop-opacity="0"/>
    </radialGradient>
  </defs>
  <rect width="320" height="420" rx="28" fill="url(#bg)"/>
  <rect width="320" height="420" rx="28" fill="url(#grid)"/>
  <circle cx="26" cy="48" r="82" fill="url(#glowA)"/>
  <circle cx="284" cy="86" r="84" fill="url(#glowB)"/>
  <circle cx="254" cy="358" r="88" fill="url(#glowA)" opacity="0.52"/>
  <rect x="12" y="12" width="296" height="396" rx="24" fill="none" stroke="#dbeafe" stroke-opacity="0.1"/>
  <path d="M12 74 H308" fill="none" stroke="#dbeafe" stroke-opacity="0.14"/>
  <path d="M12 92 H308" fill="none" stroke="#dbeafe" stroke-opacity="0.08"/>
  <path d="M12 110 H308" fill="none" stroke="#dbeafe" stroke-opacity="0.08"/>
  <path d="M12 316 V136" fill="none" stroke="#dbeafe" stroke-opacity="0.16"/>
  <path d="M308 278 V126" fill="none" stroke="#dbeafe" stroke-opacity="0.12"/>
  <path d="M186 334 C222 318, 252 306, 286 304 C260 318, 232 334, 206 350 Z" fill="#dbeafe" fill-opacity="0.08"/>
  <rect x="28" y="32" width="162" height="28" rx="14" fill="url(#accent)"/>
  <text x="40" y="50" font-family="Sora, sans-serif" font-size="11.2" font-weight="700" letter-spacing="1.9" fill="#f8fbff">PLML PUBLICATION</text>
  <text x="28" y="128" font-family="Sora, Noto Sans KR, sans-serif" font-size="17" font-weight="700" fill="#f8fbff">Computing Exact Skyline</text>
  <text x="28" y="156" font-family="Sora, Noto Sans KR, sans-serif" font-size="17" font-weight="700" fill="#f8fbff">Probabilities for</text>
  <text x="28" y="184" font-family="Sora, Noto Sans KR, sans-serif" font-size="17" font-weight="700" fill="#f8fbff">Uncertain Databases</text>
  <text x="28" y="328" font-family="Noto Sans KR, sans-serif" font-size="11.2" font-weight="500" fill="#c7d7f4">IEEE Transactions on Knowledge and</text>
  <text x="28" y="344" font-family="Noto Sans KR, sans-serif" font-size="11.2" font-weight="500" fill="#c7d7f4">Data Engineering. 24(12): 2113-2126</text>
  <text x="28" y="360" font-family="Noto Sans KR, sans-serif" font-size="11.2" font-weight="500" fill="#c7d7f4">(2012)</text>
  <circle cx="270" cy="42" r="8" fill="#dbeafe" fill-opacity="0.38"/>
  <circle cx="287" cy="42" r="8" fill="#bfdbfe" fill-opacity="0.5"/>
  <circle cx="304" cy="42" r="8" fill="#93c5fd" fill-opacity="0.62"/>
</svg>